<?xml version="1.0" standalone="no"?>
<!DOCTYPE svg PUBLIC "-//W3C//DTD SVG 20010904//EN"
 "http://www.w3.org/TR/2001/REC-SVG-20010904/DTD/svg10.dtd">
<svg version="1.0" xmlns="http://www.w3.org/2000/svg"
 width="500.000000pt" height="500.000000pt" viewBox="0 0 500.000000 500.000000"
 preserveAspectRatio="xMidYMid meet">

<g transform="translate(0.000000,500.000000) scale(0.100000,-0.100000)"
fill="#000000" stroke="none">
<path d="M3208 3963 c-80 -140 -37 -308 138 -543 114 -154 192 -240 212 -234
13 4 14 3 4 -4 -14 -9 9 -36 327 -373 85 -90 188 -204 230 -254 78 -94 174
-234 185 -273 4 -12 11 -20 16 -17 5 3 8 -46 7 -109 -2 -104 -4 -117 -26 -147
-13 -18 -24 -39 -24 -46 0 -7 -2 -11 -5 -8 -3 2 -17 -4 -31 -14 -14 -10 -44
-25 -66 -33 -48 -19 -184 -43 -192 -34 -4 3 -5 26 -5 50 2 33 -3 48 -15 56
-17 11 -17 11 -1 6 16 -5 17 1 12 52 -9 92 -23 168 -38 198 -8 16 -26 54 -40
84 -14 31 -34 65 -46 77 -11 12 -20 26 -20 30 0 20 -101 121 -175 176 -237
177 -495 227 -890 171 -60 -9 -126 -19 -145 -23 -19 -4 -66 -9 -105 -10 -38
-1 -73 -7 -76 -13 -4 -7 -9 -7 -13 0 -3 5 -21 10 -40 10 -66 0 -142 23 -192
57 -27 19 -57 38 -66 41 -34 12 -17 20 74 32 142 20 240 75 278 156 25 55 27
146 4 212 -18 53 -70 137 -109 176 -40 40 -123 78 -169 78 -37 0 -123 -31
-136 -48 -3 -4 -23 -20 -45 -37 -51 -37 -105 -95 -105 -112 0 -7 -5 -13 -11
-13 -6 0 -9 -7 -5 -15 3 -9 0 -15 -9 -15 -8 0 -15 -4 -15 -10 0 -18 -15 -11
-56 25 -21 19 -42 35 -47 35 -4 0 9 33 29 73 65 127 84 275 49 362 -21 51
-116 150 -127 132 -6 -9 -8 -8 -8 4 0 9 -12 21 -27 28 -36 17 -117 26 -140 16
-10 -5 -20 -9 -23 -9 -29 -7 -47 -28 -44 -51 1 -18 -2 -25 -10 -22 -24 10 -35
-53 -32 -182 4 -142 14 -182 44 -174 24 6 35 -10 27 -38 -7 -20 -8 -20 -26 -3
-20 18 -20 17 -10 -10 15 -37 16 -36 -26 -36 -46 0 -84 -10 -78 -19 2 -4 -8
-8 -24 -8 -49 0 -178 -89 -286 -198 -55 -55 -109 -119 -120 -140 -11 -22 -26
-46 -33 -53 -7 -8 -19 -27 -27 -43 -9 -16 -19 -29 -24 -29 -5 0 -11 -33 -14
-72 -4 -57 -1 -82 13 -113 22 -50 73 -100 92 -89 7 4 10 3 6 -1 -19 -21 165
-104 187 -85 8 7 15 7 19 1 3 -5 1 -11 -5 -13 -19 -6 146 -40 261 -52 25 -3
60 -10 79 -15 19 -6 38 -8 43 -5 5 3 7 2 6 -3 -1 -4 10 -29 25 -54 25 -43 59
-187 73 -314 3 -22 9 -76 14 -120 16 -128 13 -161 -21 -231 -21 -45 -52 -85
-101 -133 -43 -41 -68 -73 -64 -80 4 -6 20 -18 35 -25 25 -14 32 -13 82 11 30
14 65 34 79 43 14 10 93 46 175 80 113 47 164 63 205 65 77 4 169 15 205 25
17 5 51 11 78 15 35 5 47 11 47 23 0 12 2 14 8 4 7 -10 29 -8 108 8 54 12 119
23 144 26 25 3 48 11 52 17 5 8 8 6 8 -5 0 -10 3 -18 8 -19 177 -13 458 -24
462 -18 3 4 12 4 20 -1 13 -9 13 -10 0 -10 -8 0 2 -10 23 -23 45 -28 90 -97
94 -148 3 -32 0 -40 -29 -60 -38 -27 -58 -45 -58 -53 0 -3 10 -16 23 -28 28
-29 78 -29 167 -1 273 86 300 96 301 112 0 9 3 11 5 4 12 -27 133 50 175 111
22 33 26 35 104 41 203 17 305 58 421 165 12 11 36 48 53 83 36 73 42 155 15
234 -36 107 -117 252 -208 373 -122 163 -155 200 -156 178 0 -10 -5 -18 -10
-18 -7 0 -7 6 0 20 9 17 -1 32 -72 112 -141 159 -290 308 -301 301 -6 -3 -7
-2 -4 4 8 13 -267 286 -278 276 -4 -4 -5 -2 -1 5 5 8 -16 38 -56 81 -35 38
-77 93 -92 122 -16 30 -32 56 -36 59 -8 6 -9 10 -16 112 -4 47 -2 90 5 111 12
35 6 87 -9 87 -5 0 -23 -26 -42 -57z m-1492 -158 c-10 -8 -24 -11 -30 -7 -7 4
-2 8 12 10 12 2 22 8 22 14 0 6 3 8 7 4 5 -4 -1 -14 -11 -21z m534 -335 c0 -5
-2 -10 -4 -10 -3 0 -8 5 -11 10 -3 6 -1 10 4 10 6 0 11 -4 11 -10z m-502 -62
c-3 -7 -15 -14 -29 -15 -14 -1 -17 0 -6 3 9 3 17 10 17 15 0 5 5 9 11 9 6 0 9
-6 7 -12z m39 -30 c-3 -8 -6 -5 -6 6 -1 11 2 17 5 13 3 -3 4 -12 1 -19z m-47
-18 c0 -5 -4 -10 -10 -10 -5 0 -10 5 -10 10 0 6 5 10 10 10 6 0 10 -4 10 -10z
m250 -20 c0 -5 -5 -10 -11 -10 -5 0 -7 5 -4 10 3 6 8 10 11 10 2 0 4 -4 4 -10z
m-583 -266 c-9 -9 -28 6 -21 18 4 6 10 6 17 -1 6 -6 8 -13 4 -17z m281 -16
c17 -17 15 -43 -4 -59 -31 -26 -70 25 -44 56 15 18 32 19 48 3z m-668 -108 c0
-5 -5 -10 -11 -10 -5 0 -7 5 -4 10 3 6 8 10 11 10 2 0 4 -4 4 -10z m340 -20
c0 -5 -2 -10 -4 -10 -3 0 -8 5 -11 10 -3 6 -1 10 4 10 6 0 11 -4 11 -10z m835
0 c3 -5 1 -10 -4 -10 -6 0 -11 5 -11 10 0 6 2 10 4 10 3 0 8 -4 11 -10z m-275
-34 c0 -3 -4 -8 -10 -11 -5 -3 -10 -1 -10 4 0 6 5 11 10 11 6 0 10 -2 10 -4z
m2000 -76 c0 -5 -2 -10 -4 -10 -3 0 -8 5 -11 10 -3 6 -1 10 4 10 6 0 11 -4 11
-10z m-2280 -54 c0 -3 -4 -8 -10 -11 -5 -3 -10 -1 -10 4 0 6 5 11 10 11 6 0
10 -2 10 -4z m1660 -40 c0 -8 -7 -16 -15 -20 -13 -4 -14 -2 -5 14 13 23 20 26
20 6z m-2340 -27 c0 -6 -4 -7 -10 -4 -5 3 -10 11 -10 16 0 6 5 7 10 4 6 -3 10
-11 10 -16z m2030 -59 c0 -5 -9 -6 -19 -3 -12 3 -17 11 -14 19 4 11 9 12 19 3
8 -6 14 -15 14 -19z m-1725 -10 c3 -5 1 -10 -4 -10 -6 0 -11 5 -11 10 0 6 2
10 4 10 3 0 8 -4 11 -10z m805 0 c0 -5 -2 -10 -4 -10 -3 0 -8 5 -11 10 -3 6
-1 10 4 10 6 0 11 -4 11 -10z m2145 -19 c3 -5 2 -12 -3 -15 -5 -3 -9 1 -9 9 0
17 3 19 12 6z m-2534 -81 c5 0 9 -5 9 -12 0 -6 -8 -3 -20 7 -11 10 -16 23 -12
29 4 7 8 5 10 -6 2 -10 8 -18 13 -18z m2039 -4 c0 -3 -4 -8 -10 -11 -5 -3 -10
-1 -10 4 0 6 5 11 10 11 6 0 10 -2 10 -4z m-1320 -16 c0 -5 -2 -10 -4 -10 -3
0 -8 5 -11 10 -3 6 -1 10 4 10 6 0 11 -4 11 -10z m460 1 c0 -6 -4 -13 -10 -16
-5 -3 -10 1 -10 9 0 9 5 16 10 16 6 0 10 -4 10 -9z m-15 -51 c3 -5 1 -10 -4
-10 -6 0 -11 5 -11 10 0 6 2 10 4 10 3 0 8 -4 11 -10z m-975 -70 c0 -5 -2 -10
-4 -10 -3 0 -8 5 -11 10 -3 6 -1 10 4 10 6 0 11 -4 11 -10z m1260 0 c0 -5 -4
-10 -10 -10 -5 0 -10 5 -10 10 0 6 5 10 10 10 6 0 10 -4 10 -10z m620 -10 c0
-5 -2 -10 -4 -10 -3 0 -8 5 -11 10 -3 6 -1 10 4 10 6 0 11 -4 11 -10z m-1920
-4 c0 -3 -4 -8 -10 -11 -5 -3 -10 -1 -10 4 0 6 5 11 10 11 6 0 10 -2 10 -4z
m55 -6 c-3 -6 0 -17 8 -25 9 -9 12 -24 8 -42 l-6 -28 -3 30 c-2 17 -10 37 -18
46 -12 14 -13 18 -2 22 19 8 20 8 13 -3z m1175 -16 c0 -8 -5 -12 -10 -9 -6 4
-8 11 -5 16 9 14 15 11 15 -7z m-1380 -8 c0 -3 -4 -8 -10 -11 -5 -3 -10 -1
-10 4 0 6 5 11 10 11 6 0 10 -2 10 -4z m496 -53 c-10 -10 -19 5 -10 18 6 11 8
11 12 0 2 -7 1 -15 -2 -18z m241 -5 c-3 -8 -6 -5 -6 6 -1 11 2 17 5 13 3 -3 4
-12 1 -19z m-487 -56 c0 -15 -2 -15 -10 -2 -13 20 -13 33 0 25 6 -3 10 -14 10
-23z m1530 18 c0 -5 -4 -10 -10 -10 -5 0 -10 5 -10 10 0 6 5 10 10 10 6 0 10
-4 10 -10z m346 -1 c7 -12 -15 -31 -28 -23 -9 6 1 34 12 34 5 0 12 -5 16 -11z
m-1556 -29 c0 -5 -4 -10 -10 -10 -5 0 -10 5 -10 10 0 6 5 10 10 10 6 0 10 -4
10 -10z m840 -40 c0 -5 -2 -10 -4 -10 -3 0 -8 5 -11 10 -3 6 -1 10 4 10 6 0
11 -4 11 -10z m1320 3 c0 -5 -5 -15 -10 -23 -8 -12 -10 -11 -10 8 0 12 5 22
10 22 6 0 10 -3 10 -7z m-2623 -45 c-3 -8 -6 -5 -6 6 -1 11 2 17 5 13 3 -3 4
-12 1 -19z m450 -12 c-3 -8 -1 -17 6 -19 7 -2 8 -8 4 -13 -4 -5 -12 -2 -17 6
-13 20 -12 40 1 40 6 0 9 -6 6 -14z m1093 -6 c0 -5 -4 -10 -10 -10 -5 0 -10 5
-10 10 0 6 5 10 10 10 6 0 10 -4 10 -10z m180 -4 c0 -3 -4 -8 -10 -11 -5 -3
-10 -1 -10 4 0 6 5 11 10 11 6 0 10 -2 10 -4z m-1790 -10 c0 -3 -4 -8 -10 -11
-5 -3 -10 -1 -10 4 0 6 5 11 10 11 6 0 10 -2 10 -4z m1190 -6 c0 -5 -5 -10
-11 -10 -5 0 -7 5 -4 10 3 6 8 10 11 10 2 0 4 -4 4 -10z m-980 -10 c0 -5 -7
-7 -15 -4 -8 4 -15 8 -15 10 0 2 7 4 15 4 8 0 15 -4 15 -10z m290 -31 c-7 -11
-14 -19 -16 -16 -7 7 7 37 17 37 6 0 5 -9 -1 -21z m1175 11 c3 -6 -1 -7 -9 -4
-18 7 -21 14 -7 14 6 0 13 -4 16 -10z m-65 -10 c0 -5 -2 -10 -4 -10 -3 0 -8 5
-11 10 -3 6 -1 10 4 10 6 0 11 -4 11 -10z m-1050 -15 c11 -13 10 -14 -4 -9 -9
3 -16 10 -16 15 0 13 6 11 20 -6z m-160 -25 c0 -5 -5 -10 -11 -10 -5 0 -7 5
-4 10 3 6 8 10 11 10 2 0 4 -4 4 -10z m1130 0 c0 -5 -2 -10 -4 -10 -3 0 -8 5
-11 10 -3 6 -1 10 4 10 6 0 11 -4 11 -10z m367 -67 c7 -6 13 -17 13 -24 0 -10
-3 -10 -12 -1 -7 7 -20 12 -29 12 -11 0 -16 8 -16 25 0 26 6 25 44 -12z m773
27 c0 -5 -4 -10 -10 -10 -5 0 -10 5 -10 10 0 6 5 10 10 10 6 0 10 -4 10 -10z
m-1695 -29 c-6 -5 -25 10 -25 20 0 5 6 4 14 -3 8 -7 12 -15 11 -17z m1238 4
c-3 -9 -8 -14 -10 -11 -3 3 -2 9 2 15 9 16 15 13 8 -4z m-1937 -32 c-10 -10
-19 5 -10 18 6 11 8 11 12 0 2 -7 1 -15 -2 -18z m254 -3 c0 -5 -4 -10 -10 -10
-5 0 -10 5 -10 10 0 6 5 10 10 10 6 0 10 -4 10 -10z m930 0 c0 -5 -5 -10 -11
-10 -5 0 -7 5 -4 10 3 6 8 10 11 10 2 0 4 -4 4 -10z m30 -6 c0 -8 -4 -12 -10
-9 -5 3 -10 10 -10 16 0 5 5 9 10 9 6 0 10 -7 10 -16z m80 -14 c0 -5 -2 -10
-4 -10 -3 0 -8 5 -11 10 -3 6 -1 10 4 10 6 0 11 -4 11 -10z m-755 -30 c3 -5 1
-10 -4 -10 -6 0 -11 5 -11 10 0 6 2 10 4 10 3 0 8 -4 11 -10z m-365 -26 c0 -8
-5 -12 -10 -9 -6 4 -8 11 -5 16 9 14 15 11 15 -7z m-120 -4 c0 -5 -4 -10 -10
-10 -5 0 -10 5 -10 10 0 6 5 10 10 10 6 0 10 -4 10 -10z m1170 -7 c-1 -14 -27
-43 -39 -43 -6 0 -11 7 -11 16 0 8 4 13 9 10 5 -3 11 1 15 9 5 15 26 21 26 8z
m250 -93 c0 -11 -4 -20 -10 -20 -5 0 -10 9 -10 20 0 11 5 20 10 20 6 0 10 -9
10 -20z m-10 -34 c0 -3 -4 -8 -10 -11 -5 -3 -10 -1 -10 4 0 6 5 11 10 11 6 0
10 -2 10 -4z m-1715 -26 c3 -5 1 -10 -4 -10 -6 0 -11 5 -11 10 0 6 2 10 4 10
3 0 8 -4 11 -10z m1739 -31 c-3 -5 -10 -7 -15 -3 -5 3 -7 10 -3 15 3 5 10 7
15 3 5 -3 7 -10 3 -15z m-1739 2 c3 -5 1 -12 -5 -16 -5 -3 -10 1 -10 9 0 18 6
21 15 7z m1752 -61 c-1 -11 -4 -20 -8 -20 -9 0 -18 37 -12 44 10 10 22 -4 20
-24z"/>
<path d="M1534 2128 c-10 -23 -43 -73 -71 -110 -56 -72 -63 -97 -37 -119 13
-11 27 -9 86 12 38 13 74 27 80 30 8 5 4 41 -12 116 -12 59 -23 109 -25 111
-1 1 -10 -17 -21 -40z m-53 -145 c-12 -20 -14 -14 -5 12 4 9 9 14 11 11 3 -2
0 -13 -6 -23z"/>
</g>
</svg>
